<svg width="50" height="48" viewBox="0 0 50 48" fill="none" xmlns="http://www.w3.org/2000/svg">
<path fill-rule="evenodd" clip-rule="evenodd" d="M23.2139 22.7035L8.21254 14.1058L0 18.8274V28.2116L6.78623 32.1132L23.2139 22.7035Z" fill="#3B4CC7"/>
<path fill-rule="evenodd" clip-rule="evenodd" d="M8.21252 4.69209V14.1058L23.2139 22.7035L24.6376 21.888V4.69209L16.4251 0L8.21252 4.69209Z" fill="#ADB9F7"/>
<path fill-rule="evenodd" clip-rule="evenodd" d="M32.85 0L24.6375 4.69209V21.8881L41.0625 12.48V4.69209L32.85 0Z" fill="#3B4CC7"/>
<path fill-rule="evenodd" clip-rule="evenodd" d="M26.0298 24.3174L41.0626 32.9332L49.2751 28.2116V18.8274L42.4575 14.9078L26.0298 24.3174Z" fill="#ADB9F7"/>
<path fill-rule="evenodd" clip-rule="evenodd" d="M25.8875 24.3989V43.036L32.85 47.039L41.0625 42.3174V32.9332L26.0297 24.3174L25.8875 24.3989Z" fill="#3B4CC7"/>
<path fill-rule="evenodd" clip-rule="evenodd" d="M8.21252 34.523V42.3174L16.4251 47.039L23.3875 43.0361V25.8309L8.21252 34.523Z" fill="#ADB9F7"/>
</svg>
