<svg xmlns="http://www.w3.org/2000/svg" xmlns:xlink="http://www.w3.org/1999/xlink" width="500" zoomAndPan="magnify" viewBox="77 87 231 205" height="500" preserveAspectRatio="xMidYMid meet" version="1.2"><defs><clipPath id="1cebd630d0"><path d="M 87 0.359375 L 244.761719 0.359375 L 244.761719 232 L 87 232 Z M 87 0.359375 "/></clipPath><clipPath id="53836944be"><rect x="0" width="158" y="0" height="232"/></clipPath><clipPath id="21bec30c60"><path d="M 0.441406 63 L 151 63 L 151 295.558594 L 0.441406 295.558594 Z M 0.441406 63 "/></clipPath><clipPath id="140b7d50eb"><rect x="0" width="151" y="0" height="233"/></clipPath><clipPath id="4920178056"><rect x="0" width="245" y="0" height="296"/></clipPath></defs><g id="e4b0f9e9a5"><g transform="matrix(1,0,0,1,67,39)"><g clip-path="url(#4920178056)"><g clip-rule="nonzero" clip-path="url(#1cebd630d0)"><g transform="matrix(1,0,0,1,87,0)"><g id="49537942b1" clip-path="url(#53836944be)"><g style="fill:#fd5a1b;fill-opacity:1;"><g transform="translate(0.820938, 183.844654)"><path style="stroke:none" d="M 13.25 -132.546875 L 75.9375 -132.546875 C 90.445312 -132.546875 103.320312 -129.832031 114.5625 -124.40625 C 125.800781 -118.976562 134.507812 -111.273438 140.6875 -101.296875 C 146.875 -91.328125 149.96875 -79.65625 149.96875 -66.28125 C 149.96875 -52.894531 146.875 -41.210938 140.6875 -31.234375 C 134.507812 -21.265625 125.800781 -13.566406 114.5625 -8.140625 C 103.320312 -2.710938 90.445312 0 75.9375 0 L 13.25 0 Z M 74.421875 -29.921875 C 85.773438 -29.921875 94.890625 -33.140625 101.765625 -39.578125 C 108.648438 -46.015625 112.09375 -54.914062 112.09375 -66.28125 C 112.09375 -77.632812 108.648438 -86.53125 101.765625 -92.96875 C 94.890625 -99.40625 85.773438 -102.625 74.421875 -102.625 L 50.75 -102.625 L 50.75 -29.921875 Z M 74.421875 -29.921875 "/></g></g></g></g></g><g clip-rule="nonzero" clip-path="url(#21bec30c60)"><g transform="matrix(1,0,0,1,0,63)"><g id="c11cbd4381" clip-path="url(#140b7d50eb)"><g style="fill:#fd5a1b;fill-opacity:1;"><g transform="translate(0.798008, 184.436368)"><path style="stroke:none" d="M 74.609375 2.65625 C 54.867188 2.65625 39.523438 -2.722656 28.578125 -13.484375 C 17.628906 -24.242188 12.15625 -39.492188 12.15625 -59.234375 L 12.15625 -132.90625 L 49.75 -132.90625 L 49.75 -60.375 C 49.75 -39.113281 58.164062 -28.484375 75 -28.484375 C 91.707031 -28.484375 100.0625 -39.113281 100.0625 -60.375 L 100.0625 -132.90625 L 137.078125 -132.90625 L 137.078125 -59.234375 C 137.078125 -39.492188 131.601562 -24.242188 120.65625 -13.484375 C 109.707031 -2.722656 94.359375 2.65625 74.609375 2.65625 Z M 74.609375 2.65625 "/></g></g></g></g></g></g></g></g></svg>